<?xml version="1.0" encoding="UTF-8" standalone="no"?>
<!-- Created with Inkscape (http://www.inkscape.org/) -->

<svg
   width="660"
   height="250"
   viewBox="0 0 174.62499 66.145835"
   version="1.1"
   id="svg5"
   xml:space="preserve"
   xmlns:xlink="http://www.w3.org/1999/xlink"
   xmlns="http://www.w3.org/2000/svg"
   xmlns:svg="http://www.w3.org/2000/svg"
   xmlns:rdf="http://www.w3.org/1999/02/22-rdf-syntax-ns#"
   xmlns:cc="http://creativecommons.org/ns#"
   xmlns:dc="http://purl.org/dc/elements/1.1/"><title
     id="title1641">Bangladesh Telecommunications Company Limited (BTCL) - বাংলাদেশ টেলিকমিউনিকেশন্স কোম্পানি লিমিটেড (বিটিসিএল)</title><defs
     id="defs2"><linearGradient
   id="linearGradient3927"><stop
     style="stop-color:#9ce158;stop-opacity:1;"
     offset="0"
     id="stop3923" /><stop
     style="stop-color:#0b5137;stop-opacity:1;"
     offset="1"
     id="stop3925" /></linearGradient><filter
   style="color-interpolation-filters:sRGB"
   id="filter3892"
   x="-0.71427409"
   y="-0.71427413"
   width="2.4285482"
   height="2.4285483"><feGaussianBlur
     stdDeviation="25.144977"
     id="feGaussianBlur3890" /></filter><filter
   style="color-interpolation-filters:sRGB"
   id="filter3898"
   x="-0.84308107"
   y="-0.84308112"
   width="2.6861621"
   height="2.6861622"><feGaussianBlur
     stdDeviation="29.679439"
     id="feGaussianBlur3896" /></filter><radialGradient
   xlink:href="#linearGradient3927"
   id="radialGradient3931"
   cx="-182.37233"
   cy="12.135751"
   fx="-182.37233"
   fy="12.135751"
   r="56.532639"
   gradientUnits="userSpaceOnUse"
   gradientTransform="matrix(-0.60769771,1.0525634,-0.89411252,-0.5162161,-115.22218,184.10879)" />
	
	

		
	</defs><g
     id="layer1"
     transform="translate(88.15486,64.49721)"><g
       id="g1569"
       transform="matrix(0.4667641,0,0,0.4667641,-46.205918,-33.995353)"><g
         id="g3742"><g
           id="g3532"
           style="display:inline"><g
             id="g7991"
             style="display:inline;opacity:1"><path
               id="path297"
               style="opacity:1;fill:url(#radialGradient3931);fill-rule:evenodd;stroke-width:0.270923;stop-color:#000000"
               d="M 46.22588,17.635715 A 56.532639,56.532639 0 0 1 -10.306759,74.168354 56.532639,56.532639 0 0 1 -66.839397,17.635715 56.532639,56.532639 0 0 1 -10.306759,-38.896923 56.532639,56.532639 0 0 1 46.22588,17.635715 Z" /><path
               id="circle3888"
               style="opacity:1;fill:#e5f2e1;fill-rule:evenodd;stroke-width:0.202449;filter:url(#filter3892);stop-color:#000000"
               transform="matrix(0.21511652,0,0,0.21922742,18.580542,-9.3845093)"
               d="m -148.78581,22.653294 a 42.244247,42.244247 0 0 1 -42.24425,42.244247 42.244247,42.244247 0 0 1 -42.24425,-42.244247 42.244247,42.244247 0 0 1 42.24425,-42.244248 42.244247,42.244247 0 0 1 42.24425,42.244248 z" /><path
               id="circle3894"
               style="opacity:1;fill:#e5f2e1;fill-rule:evenodd;stroke-width:0.202449;filter:url(#filter3898);stop-color:#000000"
               transform="matrix(0.06849965,0,0,0.06980869,-8.7708592,-4.9768064)"
               d="m -148.78581,22.653294 a 42.244247,42.244247 0 0 1 -42.24425,42.244247 42.244247,42.244247 0 0 1 -42.24425,-42.244247 42.244247,42.244247 0 0 1 42.24425,-42.244248 42.244247,42.244247 0 0 1 42.24425,42.244248 z" /></g><path
             style="opacity:1;fill:none;fill-opacity:1;stroke:#ffffff;stroke-width:1.32292;stroke-linecap:round;stroke-linejoin:round;stroke-dasharray:none;stroke-opacity:1;paint-order:stroke fill markers"
             d="m -49.428265,55.9902 -2.270569,-1.983938 c -0.615137,-2.099702 -2.212497,-4.59779 -3.772956,-6.953461 v -9.853337 l -2.182701,-5.799749 0.06236,-4.053589 1.808525,-2.026793 0.155906,-1.683798 2.525699,-2.494516 0.311814,-2.619241 2.026793,-2.494516 0.03118,-2.026793 0.966626,-1.340803 0.155905,-2.494515 6.791278,-6.4830329 -1.12448,-2.0505209 c -1.020136,0.3051777 -2.31787,1.1982111 -2.888368,0.5512153 l -3.792361,-4.8727431 V -8.841493 l -3.571875,2.6017362 c -0.726117,0.1206575 -1.456577,0.2109086 -2.211747,0.1281936 l -1.325213,-1.3563928 -2.120339,1e-7"
             id="path8056" /><path
             style="opacity:1;fill:none;fill-opacity:1;stroke:#ffffff;stroke-width:1.32292;stroke-linecap:round;stroke-linejoin:round;stroke-dasharray:none;stroke-opacity:1;paint-order:stroke fill markers"
             d="m -52.369235,42.765352 1.091351,-1.294032 c 0.03701,-1.347942 0.09206,-2.701896 0.374176,-4.13154 l 0.997807,0.01558 c 0.519159,0.347743 0.691554,0.825523 0.888669,1.294032 l -0.01558,3.570274 1.200486,1.995612 -0.452133,6.345426 c -0.766175,-0.442494 -1.546545,-0.955961 -2.354199,-1.605847 -0.539227,-2.081984 -0.453491,-4.47645 -1.730577,-6.189505 z"
             id="path8192" /><path
             style="opacity:1;fill:none;fill-opacity:1;stroke:#ffffff;stroke-width:1.32292;stroke-linecap:round;stroke-linejoin:round;stroke-dasharray:none;stroke-opacity:1;paint-order:stroke fill markers"
             d="m 18.9895,65.2004 -3.0246,-0.06236 -4.022407,-4.271856 -1.434346,1.028985 -8.1383572,0.467723 -1.55907224,0.810718 -2.24506396,-0.717175 -0.2806331,-2.400969 -1.3408021,-2.650424 1.5590723,-4.334221 3.8353176,-0.935443 0.6548105,-1.060169 1.8708865,0.03118 2.1203382,-0.841899 0.6548104,-1.714979 c 1.4514009,-0.421901 2.8445041,-1.426775 4.1783131,-3.0246 0.841684,-0.06188 1.38944,0.53758 2.650423,-0.467723 1.14906,0.791955 2.518979,1.534312 3.086963,-0.68599 l 0.342996,-1.340803 c 1.877836,-0.05529 3.734232,-0.260666 5.690614,0.233864 -0.188804,0.774339 -0.596836,1.548677 -0.951034,2.323016 0.756763,1.09722 1.832208,1.530519 3.086963,1.590254 1.09855,-1.215778 1.865699,-3.18474 2.650423,-5.113758 -0.110529,1.619448 0.483139,2.562867 1.091351,3.492323 l -0.717175,3.149327 0.779537,2.276245 c 0.183099,0.929049 0.106106,1.810808 -0.03118,2.681605 l -2.36979,5.441161"
             id="path8194" /><path
             style="opacity:1;fill:none;stroke:#ffffff;stroke-width:1.32292;stroke-linecap:round;stroke-linejoin:round;stroke-opacity:1;paint-order:stroke fill markers"
             d="m -26.888474,-35.711171 0.529361,0.819244 c 1.799397,0.183952 3.735336,-0.145597 5.589322,-0.297656 l 3.40651,-0.926042 2.182813,1.289844 c 1.411066,0.20406 2.87794,0.268603 4.464843,0.03307 l 1.1906254,-1.422135 4.5640622,0.09922 1.7528645,-1.355989 c 0.9377894,0.244718 1.8771699,0.333515 3.4065104,0.661458"
             id="path316" /><path
             style="opacity:1;fill:none;stroke:#ffffff;stroke-width:1.32292;stroke-linecap:round;stroke-linejoin:round;stroke-opacity:1;paint-order:stroke fill markers"
             d="m 16.827118,-31.171745 1.15678,2.430248 c 1.466669,0.27104 2.933339,0.630784 4.400008,1.078213 l 2.545659,2.944194 c -0.494508,2.634832 -0.736218,5.269664 -0.701583,7.904496 -1.243092,0.639571 -2.091257,1.523621 -2.408766,2.736172 -0.646185,-0.07812 -1.304876,-0.153738 -2.408767,-0.140317 -0.164145,0.929473 -0.200646,1.782359 -0.210475,2.619242 l 1.964431,3.3442095 -1.449937,3.6716152 -2.595855,2.9232604 -2.128134,0.070158 -0.917953,0.69728496 -3.770313,0.0330729 L 7.904427,0.81028645 7.7886718,3.0427083 11.294401,7.1933593 10.944687,10.266491 6.3025495,14.242125 3.8703969,14.055036 v 1.824115 l 1.6487188,2.139826 0.2923259,2.116441 -1.4733233,1.180997 c 1.5276992,2.514195 3.5946993,4.48909 5.6711257,6.454558 l 2.397073,-1.461629 0.233861,-1.508403 -0.900364,-1.274541 0.444335,-1.99951 1.937986,-0.509052 5.705078,-6.779948 0.644923,-4.8617183 c 0.17122,-1.2907354 2.050862,-1.2728184 2.067056,0.3141927 l 0.03307,3.2411456 0.785482,1.000456 -0.09095,5.448763 2.364713,3.365169 c -0.700043,0.319705 -2.158767,0.393721 -2.158767,0.711068 0,0.303095 1.101787,0.576374 1.573752,0.864561 0.07717,0.859887 0.11016,1.702781 -0.608038,2.256757 l 0.65481,0.935443 -1.227769,0.327406 -0.374177,1.180997 -4.396584,2.572469 -2.595855,-1.648719 -1.599533,1.655291 0.677995,0.711068 1.81901,-0.165364 2.832578,1.731829 -4.238177,-0.954616 -1.637109,-0.03307 c -1.41594,-0.35139 -2.958447,-0.505899 -4.117575,-1.256774 L 8.5328124,31.501953 8.4666666,29.649869 6.4194798,29.536622 3.356901,26.623698 1.2402344,23.746354 0.82682291,22.142317 -1.1410156,20.455599 -2.9104166,17.18138 -1.8851562,17.148307 -1.7528646,15.08125 -3.2411458,13.344922 -3.2742187,11.988932 -4.4979166,10.847917 -4.7955729,8.7147134 -6.4326822,7.5902343 -7.6398437,7.4414062 -8.5658853,6.7634114 h -2.1993487 l -1.322917,-1.2071615 -0.224622,-1.5104575 -0.53788,-0.5261869 -1.88258,0.2104747 -1.824114,1.0523738 -1.335101,3.5519209 -1.637109,0.6449219 -2.811198,3.8695312 -2.530078,0.115755 -1.372526,1.389063 0.06615,5.539713 c -0.5204,0.628259 -1.2249,1.201289 -1.339453,1.951302 l -0.222997,0.770364 c -0.620687,-0.446457 -1.080077,-0.899501 -1.397573,-1.779088 l -0.04961,-1.852083 -0.363802,-1.389063 0.06615,-2.877343 -0.942578,-1.537891 -0.278844,-6.1637321 -2.730326,-0.2046282 -0.800973,-1.9702774 -2.209985,0.2338607 -2.057932,-2.7266029 -1.480013,-0.057878 -6.903942,-8.3706811 -2.43215,-4.723989 0.07016,-2.057975 1.859194,-1.356392 -3.472834,1.262848 c -0.657706,0.313248 -0.93995,0.224214 -0.724967,-0.397563 l 0.35079,-1.239463 4.466744,-3.34421"
             id="path437" /><path
             style="opacity:1;fill:none;stroke:#ffffff;stroke-width:1.32292;stroke-linecap:round;stroke-linejoin:round;stroke-opacity:1;paint-order:stroke fill markers"
             d="m 8.4666666,29.649869 3.5718754,0.214974 2.860804,1.736328"
             id="path439" /><path
             style="opacity:1;fill:none;stroke:#ffffff;stroke-width:1.13771;stroke-linecap:round;stroke-linejoin:round;stroke-dasharray:none;stroke-opacity:1;paint-order:stroke fill markers"
             d="m -25.036198,24.010937 c -0.01942,-0.916223 0.435494,-1.737755 1.083138,-1.719791 0.649916,0.01803 1.065799,0.714507 0.686263,1.843815 -0.170266,0.506627 -0.366404,1.085295 -0.909505,1.107942 -0.495971,0.02068 -0.847188,-0.632403 -0.859896,-1.231966 z"
             id="path495" /><path
             style="opacity:1;fill:none;stroke:#ffffff;stroke-width:1.13771;stroke-linecap:round;stroke-linejoin:round;stroke-dasharray:none;stroke-opacity:1;paint-order:stroke fill markers"
             d="M 10.475846,2.1580078 C 10.817644,1.597588 11.330253,1.1778362 12.04681,0.92604165 12.375185,1.1650259 12.593388,1.4958203 12.79095,1.8438151 12.81083,2.2886664 12.830759,2.7335458 12.7,3.0923177 12.120886,3.3053813 11.679217,3.1748301 11.228255,3.067513 10.95727,2.8114364 10.682644,2.5638535 10.475846,2.1580078 Z"
             id="path1051" /><path
             style="opacity:1;fill:none;stroke:#ffffff;stroke-width:1.13771;stroke-linecap:round;stroke-linejoin:round;stroke-dasharray:none;stroke-opacity:1;paint-order:stroke fill markers"
             d="m 22.96914,4.4152343 c -1.42508,0.6764718 0.214274,3.4212603 1.041797,2.9434896 1.35152,-0.7803002 -0.16015,-3.3619988 -1.041797,-2.9434896 z"
             id="path1053" /><path
             style="opacity:1;fill:none;stroke:#ffffff;stroke-width:1.13771;stroke-linecap:round;stroke-linejoin:round;stroke-dasharray:none;stroke-opacity:1;paint-order:stroke fill markers"
             d="M 22.551472,4.7867636 21.589955,3.8926076 C 22.278311,3.7080024 22.966667,3.2027092 23.655023,2.4672318 L 23.371617,4.4042779"
             id="path1057" /><path
             style="opacity:1;fill:none;stroke:#ffffff;stroke-width:0.555625;stroke-linecap:round;stroke-linejoin:round;stroke-dasharray:none;stroke-opacity:1;paint-order:stroke fill markers"
             d="m -16.519922,4.1837239 c 0,0 -0.429201,-0.6653487 -0.529166,-1.0417969 -0.0864,-0.3253711 0.05316,-0.6881476 -0.04961,-1.0087239 -0.08402,-0.2620825 -0.398745,-0.4234817 -0.446484,-0.6945312 -0.05196,-0.2949981 0.32663,-0.60571119 0.198437,-0.87643232 -0.121324,-0.25621424 -0.528356,-0.21788167 -0.760677,-0.38033854 -0.111842,-0.0782088 -0.297656,-0.28111979 -0.297656,-0.28111979 l 0.107487,-0.38033854 0.363802,-0.10748697 0.190169,-0.30592448 0.181901,-0.25631506 0.438217,-0.066146 -0.429948,-0.4464843 -0.372071,-0.2480469 0.02481,-0.2563151 -0.355534,-0.074414 c -0.100591,-0.033596 -0.105961,-0.1743143 -0.08268,-0.3472656 l 0.37432,-0.2025212 0.08303,-0.4043122 c 0.08168,-0.3977165 0.242348,-0.053483 0.0079,-0.420261 l 0.350791,0.334985 0.391099,0.3613803 0.14056,-0.1736328 0.272852,0.4878255 0.487825,0.1653646 0.19017,-0.099219 0.173632,0.2067057 0.198438,0.5705078 -0.07441,0.5208984 0.536431,0.3050935 0.579952,-0.1354699 c 0.286575,-0.028979 -0.180347,0.034239 0.735701,-0.07867 0,0 0.318045,-0.00797 0.475423,-0.028939 0.293863,-0.039148 0.548338,0.00748 0.830957,0.07028 l 0.620117,-0.107487 c 0.286077,0.2039497 0.176411,0.59806859 0.07855,0.80201824 l -0.409278,0.33899739 -0.06614,0.32246093 -0.56224,0.41341145 -0.479557,0.19016927 -0.21816,0.40514322 -0.02989,0.4878255 0.132291,0.4547526 0.14056,0.3472657 0.545703,-0.1405599 0.06615,-0.5787761 0.314193,-0.3638021 0.03307,-0.2149739 0.405143,0.057878 0.01654,0.5208984 0.223242,0.5705078 -0.157097,0.2811198 0.09095,0.5539714 0.07441,0.760677 -0.04961,0.5539714 -1.835547,-1.1575521 -0.454753,-0.3638021 -0.380338,-0.9095052 -0.124024,-0.6201171 -0.05829,0.4164208 0.06148,0.5198952 0.178892,0.5325916 0.0329,0.4410533 -0.438216,0.4299479 -0.553971,0.074414 c -0.406425,-1.4329888 -0.798849,0.9302359 -1.13276,0.2728486 z"
             id="path3449" /></g><path
           style="opacity:1;fill:#000000;fill-opacity:1;stroke:none;stroke-width:0;stroke-linecap:round;stroke-linejoin:round;stroke-dasharray:none;stroke-opacity:1;paint-order:stroke fill markers"
           d="m -66.501366,75.513736 c -4.872563,-1.214078 -9.266811,-3.236533 -12.960448,-6.358268 -3.741546,-3.162226 -5.594529,-7.488181 -5.734018,-13.022461 -0.150463,-5.969652 2.696104,-14.024643 9.713102,-24.025407 7.651099,-10.904496 18.094291,-20.449851 28.862573,-29.8859221 13.234796,-10.5799227 27.663757,-20.5072479 43.591918,-29.3332009 15.714078,-8.707327 32.17114,-16.309346 49.911164,-22.375894 14.409544,-4.927626 28.782304,-8.247303 43.257308,-9.130192 8.544409,-0.521158 17.927147,1.042279 23.857977,4.394563 5.40877,3.057203 8.40054,8.89565 8.23929,14.560351 -0.30085,10.568556 -5.41048,20.699481 -12.69709,30.7511355 4.86796,-5.0116805 9.03579,-11.1226645 12.5865,-18.5596325 2.47131,-5.176174 3.9919,-10.701503 3.05821,-16.770035 -1.17794,-7.65601 -5.81573,-12.69446 -12.86123,-15.951481 -12.816787,-5.92499 -28.813166,-4.902703 -45.086651,-1.889289 -21.739483,4.025571 -42.560578,12.112233 -62.8922846,22.61774 C -15.314005,-29.306363 -33.54901,-17.407826 -50.108569,-3.1532959 -64.112216,8.901095 -73.635191,19.864545 -79.745003,30.152165 c -5.089966,8.570417 -8.876186,17.109589 -8.363312,25.968438 0.343233,5.928645 3.016514,10.539651 7.576798,14.132473 3.965429,3.124165 8.653216,4.479515 14.030151,5.26066 z"
           id="path3534" /></g><path
         id="path976"
         style="font-style:italic;font-weight:bold;font-size:111.265px;line-height:1.25;font-family:'Myriad Pro';-inkscape-font-specification:'Myriad Pro Bold Italic';opacity:1;fill:#067a3e;fill-opacity:1;stroke-width:2.82263"
         d="m 224.74804,-4.1754557 c -10.90046,0 -20.42371,2.5589009 -28.45563,8.0108805 -11.70366,7.5660122 -19.5063,20.6954212 -19.5063,37.4964192 0,19.80515 13.76922,31.932934 34.19326,31.932934 9.29408,0 16.29337,-1.557542 20.42408,-3.33778 l -1.37718,-12.906706 c -3.90123,1.557708 -9.2941,2.447913 -14.68696,2.447913 -13.65427,0 -20.5388,-8.011271 -20.5388,-19.916614 0,-10.4589 4.13091,-19.026078 10.67119,-24.144263 4.70441,-3.783006 11.01522,-5.7862099 17.67023,-5.7862099 6.65503,0 11.70381,1.3352639 13.99863,2.4479129 l 4.47467,-13.01781029 C 239.43513,-2.2839579 233.12419,-4.1754557 224.74804,-4.1754557 Z M 98.151115,-3.5077962 c -7.676158,0 -14.779527,0.7788691 -20.278866,1.7802531 L 63.665881,71.150696 c 3.780795,0.778854 10.769563,1.446423 19.476847,1.446423 12.831788,0 22.570092,-1.891457 29.100552,-6.119523 6.0722,-3.894271 10.54044,-9.790942 10.54044,-17.802014 0,-8.233602 -4.69745,-14.13081 -12.14448,-16.356108 v -0.33383 c 8.36358,-2.336562 15.58148,-8.345015 15.58148,-17.80253 0,-6.3420989 -3.78076,-11.1263775 -8.93641,-13.68546996 C 112.12869,-2.5065079 106.17098,-3.5077962 98.151115,-3.5077962 Z m 31.445105,0.5560384 -2.8484,14.0198158 h 20.2799 l -11.73469,60.973023 h 16.40624 l 11.73468,-60.973023 h 20.50831 l 2.7342,-14.0198158 z m 118.78655,0 -14.61823,74.9928388 h 46.02407 l 2.74091,-14.0193 H 252.95097 L 264.82828,-2.9517578 Z M 98.494763,8.9539754 c 6.301327,0 10.884607,2.3361756 10.884607,7.7881546 0,6.342099 -6.18684,10.125481 -15.23783,10.125481 h -5.499406 l 3.437,-17.3575972 C 93.339399,9.1762191 95.630525,8.9539754 98.494763,8.9539754 Z M 86.121358,38.550102 h 5.155758 c 7.676158,0 14.092164,2.225281 14.092164,9.680029 0,8.344867 -8.134371,11.794112 -17.070794,11.794112 -2.40596,0 -4.353742,-0.1113 -6.301424,-0.33383 z" /></g></g><style
     type="text/css"
     id="style2874">
	.st0{fill:#58595B;}
	.st1{fill:#58595B;stroke:#58595B;stroke-miterlimit:10;}
</style><metadata
     id="metadata1639"><rdf:RDF><cc:Work
         rdf:about=""><dc:title>Bangladesh Telecommunications Company Limited (BTCL) - বাংলাদেশ টেলিকমিউনিকেশন্স কোম্পানি লিমিটেড (বিটিসিএল)</dc:title></cc:Work></rdf:RDF></metadata></svg>
